<?xml version="1.0" encoding="UTF-8" standalone="no"?>
<svg
   xmlns:dc="http://purl.org/dc/elements/1.1/"
   xmlns:cc="http://creativecommons.org/ns#"
   xmlns:rdf="http://www.w3.org/1999/02/22-rdf-syntax-ns#"
   xmlns:svg="http://www.w3.org/2000/svg"
   xmlns="http://www.w3.org/2000/svg"
   xmlns:sodipodi="http://sodipodi.sourceforge.net/DTD/sodipodi-0.dtd"
   xmlns:inkscape="http://www.inkscape.org/namespaces/inkscape"
   version="1.1"
   id="svg2"
   xml:space="preserve"
   width="4000"
   height="2666.6667"
   viewBox="0 0 4000 2666.6667"
   sodipodi:docname="4775.eps"><metadata
     id="metadata8"><rdf:RDF><cc:Work
         rdf:about=""><dc:format>image/svg+xml</dc:format><dc:type
           rdf:resource="http://purl.org/dc/dcmitype/StillImage" /></cc:Work></rdf:RDF></metadata><defs
     id="defs6" /><sodipodi:namedview
     pagecolor="#ffffff"
     bordercolor="#666666"
     borderopacity="1"
     objecttolerance="10"
     gridtolerance="10"
     guidetolerance="10"
     inkscape:pageopacity="0"
     inkscape:pageshadow="2"
     inkscape:window-width="640"
     inkscape:window-height="480"
     id="namedview4" /><g
     id="g10"
     inkscape:groupmode="layer"
     inkscape:label="ink_ext_XXXXXX"
     transform="matrix(1.3333333,0,0,-1.3333333,0,2666.6667)"><g
       id="g12"
       transform="scale(0.1)"><path
         d="M 0,0 H 30000 V 20000 H 0 Z"
         style="fill:#ffffff;fill-opacity:1;fill-rule:nonzero;stroke:none"
         id="path14" /><path
         d="m 22940.3,1714.5 c 0,0 2541.8,60.4 3627.9,1601 1967.7,2790.8 1080.9,5238.2 -2422.1,5056.1 -1601.2,-83.3 -2467.5,1311.8 -3395,2707 -1342.4,2019.2 -2813.1,4038.5 -6826,1575.2 -477,-292.8 -1143.3,-291.7 -1870.8,-290.7 -1519.5,2.3 -3306.05,4.5 -4192.01,-2671.7 C 7550.75,8750.3 5211.12,8684.8 3699.05,7930.1 1327.21,6746.3 1997.03,1694.8 4237.73,1674.9 c 2240.7,-19.9 18702.57,39.6 18702.57,39.6"
         style="fill:#ebf2f9;fill-opacity:1;fill-rule:nonzero;stroke:none"
         id="path16" /><path
         d="m 10433.5,15754.9 395.4,-35 v -949.5 l -915.33,984.5 z M 5570.75,17790.7 10734.7,16235.1 H 4600.72 c -10.49,61.7 -64.39,109.1 -128.98,109.1 H 3426.88 Z M 11027,14678.1 h -121.7 v 1111.7 l -38.2,3.4 v 441.9 l 11.1,36.5 -5320.12,1602.7 -2220.86,-1498.4 21.36,-31.7 c -72.03,0 -130.96,-58.9 -130.96,-131 v -763.9 c 0,-72 58.93,-131 130.96,-131 h 1113.16 c 72.03,0 130.97,59 130.97,131 v 305.6 h 742.1 V 1698.5 h 873.07 v 14056.4 h 3591.37 l 1001.15,-1076.8 h -205.3 c -72.1,0 -131,-58.9 -131,-131 v -130.9 c 0,-72.1 58.9,-131 131,-131 h 421.9 c 72.1,0 131,58.9 131,131 v 130.9 c 0,72.1 -58.9,131 -131,131"
         style="fill:#d2e4ff;fill-opacity:1;fill-rule:nonzero;stroke:none"
         id="path18" /><path
         d="M 9028.6,1700.8 H 5187.5 c 185,136.5 848.9,612.6 1450.2,869.7 249.2,106.5 487.6,175.4 676.7,166.9 599.8,-26.9 1440.5,-777.1 1714.2,-1036.6"
         style="fill:#e27f2b;fill-opacity:1;fill-rule:nonzero;stroke:none"
         id="path20" /><path
         d="M 7807.6,1700.8 H 3966.5 c 261.6,193.1 1481.4,1065.5 2126.9,1036.6 168.4,-7.6 355.8,-72.2 544.3,-166.9 482.9,-242.6 973,-683 1169.9,-869.7"
         style="fill:#e69d43;fill-opacity:1;fill-rule:nonzero;stroke:none"
         id="path22" /><path
         d="m 21266.6,12795.5 v 651.4 l 271.3,23.9 h 356.6 z m 3606.9,2071.8 1470.6,-992.2 h -716.8 c -44.3,0 -81.2,-32.5 -88.4,-74.9 h -4207.6 z m 1517.4,-992.2 v 0 l 14.7,21.7 -1523.4,1027.8 -3649.3,-1099.3 7.5,-25.1 v -303.1 l -26.2,-2.3 v -762.6 h -83.4 c -49.5,0 -89.9,-40.4 -89.9,-89.8 v -89.8 c 0,-49.5 40.4,-89.9 89.9,-89.9 h 289.4 c 49.4,0 89.8,40.4 89.8,89.9 v 89.8 c 0,49.4 -40.4,89.8 -89.8,89.8 h -140.9 l 686.8,738.6 h 2463.5 V 3828.9 h 598.9 v 9641.9 h 509 v -209.6 c 0,-49.4 40.4,-89.8 89.8,-89.8 h 763.6 c 49.4,0 89.9,40.4 89.9,89.8 v 524 c 0,49.5 -40.5,89.9 -89.9,89.9"
         style="fill:#ebf2f9;fill-opacity:1;fill-rule:nonzero;stroke:none"
         id="path24" /><path
         d="m 14128.4,1685.5 h 5038.4 v 15678.4 h -5038.4 z"
         style="fill:#d2e4ff;fill-opacity:1;fill-rule:nonzero;stroke:none"
         id="path26" /><path
         d="m 14128.4,12903.8 h 3646.8 v 2296.89 h -3646.8 z"
         style="fill:#c0dbff;fill-opacity:1;fill-rule:nonzero;stroke:none"
         id="path28" /><path
         d="m 14128.4,8697.8 h 3646.8 v 2296.89 h -3646.8 z"
         style="fill:#c0dbff;fill-opacity:1;fill-rule:nonzero;stroke:none"
         id="path30" /><path
         d="m 14128.4,4546.1 h 3646.8 V 6843 h -3646.8 z"
         style="fill:#c0dbff;fill-opacity:1;fill-rule:nonzero;stroke:none"
         id="path32" /><path
         d="m 25447.8,4560.8 h -680 v 2124 h -5601 V 17363.9 H 17775.2 V 1676.7 h 1391.6 v 8.8 h 5601 680 v 2875.3"
         style="fill:#aed3ff;fill-opacity:1;fill-rule:nonzero;stroke:none"
         id="path34" /><path
         d="M 27785,1648.4 H 2151.83 c -13.86,0 -25.2,11.3 -25.2,25.2 0,13.8 11.34,25.2 25.2,25.2 H 27785 c 13.8,0 25.2,-11.4 25.2,-25.2 0,-13.9 -11.4,-25.2 -25.2,-25.2"
         style="fill:#283250;fill-opacity:1;fill-rule:nonzero;stroke:none"
         id="path36" /><path
         d="m 20208.3,1698.4 c 0,0 10,217 68.2,333.4 58.2,116.4 523.8,36.4 523.8,36.4 0,0 107.3,-194.2 92.8,-368.8 l -684.8,-1"
         style="fill:#233862;fill-opacity:1;fill-rule:nonzero;stroke:none"
         id="path38" /><path
         d="m 18958.7,1698.4 c 0,0 10,217 68.2,333.4 58.2,116.4 523.9,36.4 523.9,36.4 0,0 107.3,-194.2 92.7,-368.8 l -684.8,-1"
         style="fill:#233862;fill-opacity:1;fill-rule:nonzero;stroke:none"
         id="path40" /><path
         d="m 20510,10908.5 c -58.1,-42.2 -584.6,-317 -584.6,-317 l -555.2,395.9 c 0,0 168.7,24.5 173.1,25.8 50.1,14 47.8,148.4 54.2,291.4 0.9,22.1 2.1,44.3 3.8,66.4 l 543.6,19.7 0.4,-6.7 c 0.5,-6.9 1,-14.1 1.5,-21.6 l 1.1,-15.5 c 0.4,-5.4 0.8,-10.7 1.2,-16.3 9.9,-125.7 30.8,-303.3 71,-324 22.8,-11.8 177.5,-10 289.9,-98.1"
         style="fill:#d9935c;fill-opacity:1;fill-rule:nonzero;stroke:none"
         id="path42" /><path
         d="m 20149.1,11330.6 c -44.8,-89.7 -144.7,-245.9 -292.8,-240.7 -141.4,5 -221.9,133.5 -258.8,214.7 0.9,22.1 2.1,44.3 3.8,66.4 l 543.6,19.7 0.4,-6.7 1.5,-21.6 1.1,-15.5 c 0.4,-5.4 0.8,-10.7 1.2,-16.3"
         style="fill:#cb7d45;fill-opacity:1;fill-rule:nonzero;stroke:none"
         id="path44" /><path
         d="m 19536.6,12582.9 c 0,0 262.2,261.1 571.6,-5.2 0,0 -184,38.1 -571.6,5.2"
         style="fill:#2b478b;fill-opacity:1;fill-rule:nonzero;stroke:none"
         id="path46" /><path
         d="m 19439.3,11622.5 c 0,0 -83,171.9 -134.3,372.1 -36.6,143 -3.1,685.5 542.3,648.6 0,0 157.9,-3.7 312.7,-92.1 123,-70.4 304.9,-228.5 151,-711.2 l -37.2,-162 -834.5,-55.4"
         style="fill:#b64c41;fill-opacity:1;fill-rule:nonzero;stroke:none"
         id="path48" /><path
         d="m 20202.3,11394.7 c -140.8,-134.6 -315.7,-314 -692.7,17.7 -73.8,64.9 -68.8,164.7 -73.1,308 -5.2,169.6 -46,273.5 -27,371.3 22.5,117 122.5,169.8 330.1,187.9 381.2,33.1 573.9,-52.8 548.3,-242 -57.1,-422.2 57.5,-506 -85.6,-642.9"
         style="fill:#d9935c;fill-opacity:1;fill-rule:nonzero;stroke:none"
         id="path50" /><path
         d="m 19891.6,12286.5 c 0,0 226,4.8 277.6,-70.8 51.6,-75.5 58.7,-160 84.7,-202.6 26,-42.6 21.7,-90.4 21.7,-90.4 l 50.2,337.3 -305.9,60.8 -128.3,-34.3"
         style="fill:#b64c41;fill-opacity:1;fill-rule:nonzero;stroke:none"
         id="path52" /><path
         d="m 21209.6,10426 c 0,0 -96.5,-284.4 -487.7,-336.5 -10.6,-1.4 -21.5,-2.6 -32.6,-3.7 H 19096 c 0,0 -3,0.9 -8.5,2.6 -61.9,19.7 -442.6,150.1 -482.6,394 0,0 200.1,411 352.9,462 44.6,14.9 106.2,26 171,34.5 66.3,8.5 136,14.2 194.5,17.9 80.6,5 139.7,6.3 139.7,6.3 0,0 124.1,-251.6 426.1,-247.9 301.9,3.7 371.9,244.2 371.9,244.2 0,0 84.8,-2.4 197.4,-14.6 62.1,-6.7 132.6,-16.3 202.1,-30.2 117.8,-23.4 232.5,-58.8 298.1,-112 174.6,-141.9 251,-416.6 251,-416.6"
         style="fill:#9ed9f0;fill-opacity:1;fill-rule:nonzero;stroke:none"
         id="path54" /><path
         d="m 20830.6,8226.4 c -17,94.2 -42.2,237.6 -62,363.7 0.1,1.7 59,712 80.8,831.9 21.9,120 -126.4,773.2 -126.4,773.2 -34.5,99.9 -93,130.5 -137.9,130.5 l 75.4,628.9 c -69.5,13.9 -140,23.5 -202.1,30.2 l -36.1,-659.1 -0.6,-9.5 c -82.6,-4.6 -185.6,-10.1 -281.5,-14.4 -95.9,-4.4 -184.8,-7.5 -239.5,-7.5 -111.2,0 -366.3,12.7 -535.8,22 l -0.7,9.4 -40.9,671.1 c -58.5,-3.7 -128.2,-9.4 -194.5,-17.9 l 72.1,-653.2 v -0.1 c -47.5,0 -102.1,-84.3 -109.6,-131.1 l -7.3,-204.3 c -35.9,-102.9 -110.2,-331.5 -122.6,-491.9 -16.3,-212 72.3,-949.8 72.9,-954.9 -3.2,-87.9 -9.5,-200.3 -21.5,-309 -66.5,-180.4 -350.5,-1019.3 -321.6,-2147.3 27,-1053.1 42.9,-2852.4 167,-3726 20.2,-141.8 43.1,-259.2 69.5,-345 13.3,-43.3 50.7,-74.7 95.6,-80.9 142.3,-19.8 463,-56.1 601,-5.9 66.1,24.1 113.5,391.3 147,864.8 32.1,453.8 51.4,1005.4 62.1,1445.6 l 0.1,0.3 c 8.6,350.9 11.9,631.1 11.9,734.8 0,234.6 55.5,923 73.8,1327.9 0.5,11.5 17.2,11.6 18,0.2 v -0.1 c 27.8,-480.7 124.9,-1209.7 126.5,-1371.7 3.6,-392.9 -19.3,-2917 152.4,-3001.8 131.3,-64.8 440.7,-15.8 588.5,4.2 53.5,7.2 97.4,45.3 112.5,97.1 184.7,635.1 201,2842 232.1,4056.5 28.5,1112.1 -247,1943.3 -318.6,2139.3"
         style="fill:#2b478b;fill-opacity:1;fill-rule:nonzero;stroke:none"
         id="path56" /><path
         d="m 19383.4,7772.2 c -54.5,-43.7 -232.7,-25.4 -301.8,32.7 -69.2,58.3 -207.4,40.1 -240.1,61.9 -2.3,1.5 -645.7,764 -715.5,1084.9 -70.4,323.8 375,1214.9 501.1,1457.8 93.3,-197.1 404.1,-303.5 459.5,-321.1 5.6,-1.7 8.5,-2.6 8.5,-2.6 h 17.3 c -104.9,-283.5 -418.5,-793.9 -539.3,-986.2 -30,-47.8 -33.8,-107.6 -10,-158.9 155.2,-332.8 307,-613.5 373.5,-807.9 13.2,-21.6 41.5,-60.3 75.8,-55 47.4,7.3 200.1,40 276.5,-72.7 76.4,-112.9 149.1,-189.3 94.5,-232.9"
         style="fill:#d9935c;fill-opacity:1;fill-rule:nonzero;stroke:none"
         id="path58" /><path
         d="m 20362.9,12575.3 c 0,0 -41.9,56.9 -117,120.7 -11.9,10.3 -24.7,20.7 -38.3,30.9 -138.2,105.2 -359.3,207.8 -625.8,96.6 -72.2,-30.1 -132.3,-71 -182.2,-118.4 -11.8,-11.2 -23,-22.6 -33.5,-34.5 -231.1,-256.4 -211.5,-658.5 -211.5,-658.5 l 1333.5,14.2 c 4.3,372.3 -125.2,549 -125.2,549"
         style="fill:#ffa412;fill-opacity:1;fill-rule:nonzero;stroke:none"
         id="path60" /><path
         d="m 20113.5,12022.3 c -3.8,56.1 -29.3,516.2 132.4,673.6 -11.9,10.3 -9.1,8.5 -22.7,18.9 -172.4,-180.9 -183.4,-634 -182.8,-693.2 l -426.2,-4.6 c -12.7,326.6 -192.9,651.8 -214.6,688.1 -11.8,-11.2 -14,-13.4 -24.6,-25.2 31.3,-55.1 149,-369.9 160.3,-663.7 l -380.7,-4.1 c 0,0 355.1,-91.8 622.6,-88.5 267.5,3.3 710.9,102.7 710.9,102.7 l -374.6,-4"
         style="fill:#e27f2b;fill-opacity:1;fill-rule:nonzero;stroke:none"
         id="path62" /><path
         d="m 19433.9,10256.8 c -136.4,-261.9 -523.9,-311 -523.9,-311 125.6,305.6 -127.3,401.9 -283.7,714.8 -156.4,312.9 120,520.3 120,520.3 -171,-32.8 -203.7,-262 -203.7,-262 -14.5,152.8 112.8,411 516.6,462 295.7,37.3 367.1,137 384.1,187.7 6.6,-65.8 22.6,-117.3 66.8,-156.2 31.2,-27.5 61.1,-51.4 89.6,-72.2 -0.7,-11.9 -1.2,-23.8 -1.8,-35.6 -1.7,-40.2 -2.8,-79.9 -4.7,-116.2 -52.8,-63 -51.3,-130 -42.3,-172.1 5.5,-26.2 14,-42.8 14,-42.8 42.3,-58.8 63.8,-116.6 70,-174.5 18.8,-173.1 -98.7,-345.8 -201,-542.2"
         style="fill:#b64c41;fill-opacity:1;fill-rule:nonzero;stroke:none"
         id="path64" /><path
         d="m 20827.5,8243.5 -58.9,346.5 c -287,-106.4 -558.2,-152.8 -797.8,-165.6 -28.1,52 -79.6,90.1 -142,99.2 l -211.6,30.6 c -83.5,12.1 -162.2,-31.4 -198.9,-102.4 -203.2,31.4 -340.4,77.5 -383.9,93.4 l -0.1,-1.9 -21,-304.2 v -0.8 c 122.2,-32.5 239.4,-57.8 351.5,-77 l -6.3,-42.4 c -15.5,-105.2 57.1,-203.1 162.3,-218.9 l 234.5,-35.2 c 111.8,-16.7 214,65.9 221.1,178.8 l 4.1,65.2 c 447,2.3 744.1,96.3 847,134.7"
         style="fill:#233862;fill-opacity:1;fill-rule:nonzero;stroke:none"
         id="path66" /><path
         d="m 21685,8951.7 c -69.8,-320.9 -713.2,-1083.4 -715.5,-1084.9 -5.6,-3.7 -14.3,-6.3 -25.2,-8.3 l -1.2,-0.2 c -53.2,-9.2 -156.8,-5.4 -213.7,-53.4 -69.1,-58.1 -247.4,-76.4 -302,-32.7 -54.5,43.6 18.3,120 94.6,232.9 76.4,112.7 229.2,80 276.5,72.7 28.1,-4.3 52.5,21 67.4,42.2 l 0.9,1.2 c 2.8,4.1 5.5,8.1 7.5,11.6 65.1,190.2 211.6,462.6 363.1,785.7 30.4,64.6 25.9,140.4 -12,200.9 -101.2,161.7 -306.6,497.5 -438.7,766.9 -15.4,77.9 -30.8,151.2 -42.7,206.6 290.3,46.7 410.5,223.3 449.3,298.6 137.2,-266.2 560.4,-1123.5 491.7,-1439.8"
         style="fill:#d9935c;fill-opacity:1;fill-rule:nonzero;stroke:none"
         id="path68" /><path
         d="m 26040.6,7568.5 c -97.4,-22.4 -537.2,-27.8 -846,41.6 -64.4,14.4 -123.2,32.1 -171.9,53.6 -58.2,25.7 -102,56.7 -124.4,94 -34.9,58.1 -98.8,257.2 -173.9,518.2 -206.8,719.1 -497.8,1907.4 -497.8,1907.4 0,0 584.4,-119.3 708,-221.1 123.8,-101.8 232.9,-1717 349.2,-1760.7 17.2,-6.4 46.8,-20 84.6,-38.6 1.9,-0.9 3.7,-1.9 5.6,-2.7 22.6,-11.2 48,-24.1 75.5,-38.2 241.3,-124 640.6,-347.4 682,-397.1 54.6,-65.4 51,-123.6 -90.9,-156.4"
         style="fill:#739af0;fill-opacity:1;fill-rule:nonzero;stroke:none"
         id="path70" /><path
         d="m 24919.2,9263.7 c 0,27.5 -2.7,55 -7.7,82.6 -75.2,413.5 -673.2,837 -684.9,837 l -0.1,-8.6 c 0,-63.2 -99.7,-179.9 -253.1,-189.9 -182.1,-11.9 -406.7,91.9 -406.7,196.8 -1.1,0 -102.3,-13.7 -136.6,-17.5 -145.9,-16.6 -437.1,-95.4 -561.8,-189.7 -118.6,-89.6 49,-654.6 152.8,-1054.7 43.9,-169.2 76.4,-308.9 71,-370.8 -2.6,-30.2 -29.8,-440.9 -54,-812.4 -20.1,-306.5 -38.2,-586.2 -38.7,-603.7 -1.4,-34.8 171.7,-156.7 462.3,-248.9 70.2,-22.2 147.4,-42.7 230.5,-59.8 149.2,-30.6 317.9,-50.4 501.5,-49.7 60,0.2 116.9,3.2 170.6,8.6 415.1,40.7 557.3,513.8 554.9,2480.7"
         style="fill:#739af0;fill-opacity:1;fill-rule:nonzero;stroke:none"
         id="path72" /><path
         d="m 23566.8,10186.4 c -3.5,160.7 -0.9,352.4 20.8,514.4 l 641.1,-104.7 c 0,0 0.7,-195.7 -2.1,-412.8 0.3,-0.1 17.4,-201.4 -230.6,-230.8 -248,-29.5 -435.9,78.5 -429.2,233.9"
         style="fill:#d9935c;fill-opacity:1;fill-rule:nonzero;stroke:none"
         id="path74" /><path
         d="m 24103.1,1698.3 c -80.6,49.6 -33.2,417.3 -33.2,417.3 0,0 377.5,299.7 428.4,68.9 50.9,-230.7 356.3,-335.4 530.3,-364.3 120.1,-19.9 164.4,-82 175.8,-121.4 l -1101.3,-0.5"
         style="fill:#233862;fill-opacity:1;fill-rule:nonzero;stroke:none"
         id="path76" /><path
         d="m 23515.9,8019.6 c 0,-614.8 -298,-449.1 -477.8,-283.1 24.2,371.5 41.2,1687.3 41.2,1687.3 0,0 436.6,-523.8 436.6,-1404.2"
         style="fill:#4a75cb;fill-opacity:1;fill-rule:nonzero;stroke:none"
         id="path78" /><path
         d="m 25449.5,8122 c -11.9,-86.3 -148.1,-337.3 -254.9,-511.9 -64.4,14.4 -123.2,32.1 -171.9,53.6 -58.2,25.7 -102,56.7 -124.4,94 -34.9,58.1 -98.8,257.2 -173.9,518.2 55.6,321.3 108.4,638.6 108.4,638.6 l 16.4,212.8 c 0,-16.4 249.1,-951.3 362,-973.1 68,-13.3 116.2,2.8 157.2,8.7 1.9,-0.9 3.7,-1.9 5.6,-2.7 22.6,-11.2 48,-24.1 75.5,-38.2"
         style="fill:#4a75cb;fill-opacity:1;fill-rule:nonzero;stroke:none"
         id="path80" /><path
         d="m 22946.3,1698.3 c -80.6,49.6 -33.3,417.3 -33.3,417.3 0,0 377.6,299.7 428.5,68.9 50.8,-230.7 356.3,-335.4 530.3,-364.3 120.1,-19.9 163.7,-82 175.1,-121.4 l -1100.6,-0.5"
         style="fill:#233862;fill-opacity:1;fill-rule:nonzero;stroke:none"
         id="path82" /><path
         d="m 23505.8,10885.7 c 0,0 -428,674.7 393.7,719.4 0,0 308.2,-36.3 378,33.5 0,0 239.1,-363.4 15.8,-752.9 -223.2,-389.5 -787.5,0 -787.5,0"
         style="fill:#233862;fill-opacity:1;fill-rule:nonzero;stroke:none"
         id="path84" /><path
         d="m 24209.7,10533.6 c -62.3,-49 -245,-97.7 -297.8,-103.4 0,0 -270.8,60.4 -320,90.1 -76.3,46.2 -71.4,139.8 -75.3,269.8 -4.6,154 -20.2,274.9 -3,363.6 20.5,106.2 87.8,166.6 276.2,183 346,30 490.1,-56.6 496.1,-172.6 1.6,-31.1 3,-60.8 4,-89 13.9,-361.7 -14.7,-489.9 -80.2,-541.5"
         style="fill:#d9935c;fill-opacity:1;fill-rule:nonzero;stroke:none"
         id="path86" /><path
         d="m 24293.1,10956.6 c -3.4,-209.6 -59.9,-333.6 -100.9,-349.3 -47.1,-18 -102.6,-32.9 -160.4,-42.9 -19.5,-2.2 -38.2,-1.6 -38,9.5 0.7,33 44.8,73.8 12,103 -34.4,30.7 -219.1,41.1 -234,-25.9 -7.3,-32.7 52.3,-90.3 11.5,-91.7 -12.4,2.1 -24.6,4.5 -36.2,7.6 -67.3,17.5 -120.1,49.3 -142.3,62.8 -76.3,46.2 -71.3,117 -88.1,246.1 -11,83.4 -11,38.2 0,-85.7 11.4,-129.6 -11,-212.8 75.2,-269.8 47.9,-31.7 324.1,-155.8 324.1,-155.8 -4.1,65.7 231.4,120.1 293.7,169.1 57.8,45.4 86.8,150.6 83.4,423"
         style="fill:#233862;fill-opacity:1;fill-rule:nonzero;stroke:none"
         id="path88" /><path
         d="m 22999.4,7132.8 c -1.3,-34.8 171.8,-156.7 462.4,-248.8 23.4,-7.5 47.7,-14.7 72.6,-21.6 l 0.6,-0.7 c 27.1,-318.1 100.5,-767.5 166.7,-1201.1 v -0.1 c 17.1,-112.4 33.7,-223.8 49,-331.5 40.4,-285 70.6,-544.8 73.9,-731.7 v -2 c 1.4,-85.8 -71,-299.8 -76.4,-349.2 -3.4,-30.2 -6.1,-62.2 -8.1,-95.7 -7.9,-133.9 -4.7,-292.2 6.1,-461.1 47.5,-737.3 242.3,-1680.7 311.8,-1720.8 138.2,-79.9 389.6,0.1 517.4,18.7 52.9,7.9 95.3,53 92.5,106.3 -62.4,1223.6 116.9,2927.8 250.9,3975.3 3.5,27.3 7,54.1 10.4,80.4 16,123.5 26.6,238.9 33.3,342.9 6.1,91.2 9.1,174 10.4,245.8 0.3,22.4 0.5,43.8 0.6,64 0.3,65.6 -51.8,494.9 -54.2,2461.8 -0.1,45.5 -37.3,82.6 -82.7,82.6 h -1202.8 c -116.3,0 -209.8,-95.1 -208.4,-211.3 1.9,-150 -3.5,-359.5 -36.1,-559.5 -44.4,-273.1 -139.4,-528.2 -335.6,-589.6 l -0.5,-0.4 c -0.9,-2 -6.3,-13.9 -14.9,-33.8 l -0.1,-0.3 c -1.8,-49.4 -3.9,-99.7 -6.2,-150.9 -0.4,-10.3 -0.8,-20.7 -1.4,-31 -0.2,-6.1 -0.5,-12.1 -0.9,-18.3 -0.4,-10.3 -0.9,-20.8 -1.5,-31.3 -0.8,-17.2 -1.6,-34.6 -2.6,-52.1 -0.8,-13.8 -1.5,-27.5 -2.3,-41.4 -1.4,-26.6 -3.1,-53.6 -4.8,-80.8 -0.4,-8.7 -1,-17.3 -1.6,-26.1 -2.3,-35.2 -4.7,-70.9 -7.5,-106.8 -0.7,-11 -1.6,-22 -2.5,-33.2 -0.3,-5.3 -0.7,-10.7 -1.2,-16 -1.1,-14.1 -2.2,-28.2 -3.4,-42.3 -1.2,-15 -2.5,-30.1 -3.8,-45.2 -4.8,-55.2 2.3,-104.5 0.9,-143.2"
         style="fill:#2b478b;fill-opacity:1;fill-rule:nonzero;stroke:none"
         id="path90" /><path
         d="m 23746.2,3689.3 c 47.5,-737.3 242.3,-1680.7 311.8,-1720.8 138.2,-79.9 389.6,0.1 517.4,18.7 52.9,7.9 95.3,53 92.5,106.3 -62.4,1223.6 116.9,2927.8 250.9,3975.3 3.5,27.3 7,54.1 10.4,80.4 16,123.5 26.6,238.9 33.3,342.9 -63.7,415.3 -423.4,437.6 -749.6,-421.6 40.3,-285.1 -477.5,-2212.3 -466.7,-2381.2"
         style="fill:#233862;fill-opacity:1;fill-rule:nonzero;stroke:none"
         id="path92" /><path
         d="m 22985.9,4632 c -9.9,-85.3 -109.6,-287.9 -121.6,-336.2 -164.9,-663.2 -73.8,-2235.7 7.9,-2298.6 126.5,-97.3 386.3,-51.1 515.4,-49.3 53.6,0.7 101.4,39.9 105.7,93.1 101.4,1253 521.6,2973.9 791.8,3986.2 136.1,509.9 155.3,884.9 155.3,884.9 0,0 -1262.8,773.7 -1399.4,351 -120.9,-374 21.1,-1976.7 -55.1,-2631.1"
         style="fill:#2b478b;fill-opacity:1;fill-rule:nonzero;stroke:none"
         id="path94" /><path
         d="m 24272.2,11793.7 c -8.8,9.8 -18,19.3 -27.7,28.5 -41.2,39.2 -90.8,73 -150.5,97.8 -220.2,91.9 -402.8,7.1 -516.9,-79.7 -11.3,-8.5 -21.9,-17.1 -31.7,-25.5 -62,-52.8 -96.7,-99.8 -96.7,-99.8 0,0 -106.9,-145.9 -103.3,-453.4 l 1101.5,-11.8 c 0,0 16.2,332.1 -174.7,543.9"
         style="fill:#ffa412;fill-opacity:1;fill-rule:nonzero;stroke:none"
         id="path96" /><path
         d="m 23654.5,11258.4 60.5,-0.7 c 1.2,17.5 -1.7,417.3 -150.8,572.5 -11.3,-8.4 -9,-7 -18.8,-15.4 141.6,-136.7 109.4,-552.3 109.1,-556.4"
         style="fill:#e27f2b;fill-opacity:1;fill-rule:nonzero;stroke:none"
         id="path98" /><path
         d="m 24133.1,11253.1 c 12.6,244.8 106.4,502 131.7,547.7 -8.7,10.1 -10.6,12 -20.3,21.4 -17.6,-30.2 -161.3,-296.5 -176.5,-568.4 l -722.6,7.8 c 0,0 366.2,-82.2 587.1,-84.9 221,-2.8 514.4,73.1 514.4,73.1 l -313.8,3.3"
         style="fill:#e27f2b;fill-opacity:1;fill-rule:nonzero;stroke:none"
         id="path100" /><path
         d="m 23386.8,10158.2 c 0,0 372.2,-433.6 394.1,-811.9 l -189.6,-10.1 c 0,0 -47.8,421.4 -327.9,796.1 0,0 43.8,10.6 58.4,13.5 19.5,3.9 65,12.4 65,12.4"
         style="fill:#2b478b;fill-opacity:1;fill-rule:nonzero;stroke:none"
         id="path102" /><path
         d="m 24314.8,10164.2 c 266.6,-403.5 295.2,-826.1 295.2,-826.1 l 191.4,3.3 c -15.7,297.4 -202.6,624.5 -305.7,779.5 0,0 -132.4,33.5 -180.9,43.3"
         style="fill:#2b478b;fill-opacity:1;fill-rule:nonzero;stroke:none"
         id="path104" /><path
         d="m 23899.2,6003.2 h -153.7 c -71.4,32.4 -456.3,199.1 -826.2,201.1 -266.9,1.5 -571,-197.9 -589.3,-200 -46.4,-5.5 154.6,-7.3 154.6,-7.3 0,0 301.2,133.3 436.5,136.4 129,3 415.4,-90.8 529.8,-130.2 h -861.3 c -72.1,0 -131,-59 -131,-131 V 4890 c 0,-72 58.9,-130.9 131,-130.9 h 1309.6 c 72,0 130.9,58.9 130.9,130.9 v 982.2 c 0,72 -58.9,131 -130.9,131"
         style="fill:#ffa412;fill-opacity:1;fill-rule:nonzero;stroke:none"
         id="path106" /><path
         d="M 23473.6,6003.2 H 22164 c -72.1,0 -131,-59 -131,-131 V 4890 c 0,-72 58.9,-130.9 131,-130.9 h 1309.6 c 72,0 130.9,58.9 130.9,130.9 v 982.2 c 0,72 -58.9,131 -130.9,131"
         style="fill:#e27f2b;fill-opacity:1;fill-rule:nonzero;stroke:none"
         id="path108" /><path
         d="m 23089,7830.7 c 9.3,-444 -46,-1328.1 -46,-1328.1 h -261.9 c -123.7,622.1 -167.3,1022.3 -167.3,1240.6 0,43 0.2,83 0.5,120 1.7,186.4 6.7,294.7 6.7,294.7 -49.1,1129.4 176.5,1733.3 247.3,1816.5 70.9,83.2 395,157.9 395,157.9 0,0 107.1,-312 150.8,-563 43.6,-251 -343.4,-1305.7 -327.4,-1666.2 0.9,-22.4 1.7,-46.7 2.3,-72.4"
         style="fill:#739af0;fill-opacity:1;fill-rule:nonzero;stroke:none"
         id="path110" /><path
         d="m 26488.4,7528.5 h -211.8 c -21,0 -38.2,-17.3 -38.2,-38.4 v -5768 c 0,-21 17.2,-38.3 38.2,-38.3 h 211.8 c 21.1,0 38.2,17.3 38.2,38.3 v 5768 c 0,21.1 -17.1,38.4 -38.2,38.4"
         style="fill:#f1a34f;fill-opacity:1;fill-rule:nonzero;stroke:none"
         id="path112" /><path
         d="m 26488.4,7528.5 h -211.8 c -21,0 -38.2,-17.3 -38.2,-38.4 v -178.7 h 288.2 v 178.7 c 0,21.1 -17.1,38.4 -38.2,38.4"
         style="fill:#2b478b;fill-opacity:1;fill-rule:nonzero;stroke:none"
         id="path114" /><path
         d="m 26238.4,1722.1 c 0,-21 17.2,-38.3 38.2,-38.3 h 211.8 c 21.1,0 38.2,17.3 38.2,38.3 v 154.2 h -288.2 v -154.2"
         style="fill:#2b478b;fill-opacity:1;fill-rule:nonzero;stroke:none"
         id="path116" /><path
         d="m 26384.3,7150.5 c -12,0 -21.8,-9.8 -21.8,-21.8 V 2051.6 c 0,-12 9.8,-21.8 21.8,-21.8 12,0 21.8,9.8 21.8,21.8 v 5077.1 c 0,12 -9.8,21.8 -21.8,21.8"
         style="fill:#e27f2b;fill-opacity:1;fill-rule:nonzero;stroke:none"
         id="path118" /><path
         d="m 23043,6502.6 c 0,0 55.3,884.1 46,1328.1 -209.5,67.5 -378.4,52.7 -474.7,32.5 -0.3,-37 -0.5,-77 -0.5,-120 0,-218.3 43.6,-618.5 167.3,-1240.6 -54.6,-229.1 -50.9,-476.5 43.6,-520.2 94.6,-43.6 407.5,120.1 403.8,192.8 -3.6,72.8 -185.5,327.4 -185.5,327.4"
         style="fill:#d9935c;fill-opacity:1;fill-rule:nonzero;stroke:none"
         id="path120" /><path
         d="m 26626.7,7524.9 c -25.5,93.6 -44.5,145.5 -108.9,190.9 -93.7,66.1 -204.9,48.2 -287.8,33.7 -63.3,-11.1 -129.6,10.1 -157.4,20.8 -146.8,97.8 -515.2,299.4 -698.6,389.9 -125.2,-72.6 -279,-216.2 -351.3,-496.5 282.3,-124.5 900.2,-122.3 1017.9,-95.2 0,0 108.9,-79.1 191.8,-86.4 31.3,-2.7 70.9,6.4 107.9,18.8 58.2,19.5 120.7,0 162.5,-51.7 40.3,-49.8 92.9,-77.1 114.7,-77.1 33.7,0 25.3,93.8 9.2,152.8"
         style="fill:#d9935c;fill-opacity:1;fill-rule:nonzero;stroke:none"
         id="path122" /><path
         d="m 4391.43,6388.7 h -1309.6 c -72.03,0 -130.97,-58.9 -130.97,-130.9 v -982.2 c 0,-72.1 58.94,-131 130.97,-131 h 1309.6 c 72.03,0 130.96,58.9 130.96,131 v 982.2 c 0,72 -58.93,130.9 -130.96,130.9"
         style="fill:#ffa412;fill-opacity:1;fill-rule:nonzero;stroke:none"
         id="path124" /><path
         d="m 4817.05,6388.7 h -1309.6 c -72.03,0 -130.96,-58.9 -130.96,-130.9 v -982.2 c 0,-72.1 58.93,-131 130.96,-131 h 1309.6 c 72.03,0 130.96,58.9 130.96,131 v 982.2 c 0,72 -58.93,130.9 -130.96,130.9"
         style="fill:#e27f2b;fill-opacity:1;fill-rule:nonzero;stroke:none"
         id="path126" /><path
         d="m 3223.7,6383.3 c 0,0 311.03,229.2 357.41,223.7 46.39,-5.5 120.05,-21.8 120.05,-21.8 l -278.29,-210.1 -199.17,8.2"
         style="fill:#ffa412;fill-opacity:1;fill-rule:nonzero;stroke:none"
         id="path128" /><path
         d="m 5605,8402.5 c -19.21,-5.2 -40.06,-10.1 -62.32,-14.8 -15.39,-3.4 -31.43,-6.5 -48.02,-9.6 -0.33,7.6 -0.54,15.2 -0.87,22.6 -4.26,103 -9.06,201.1 -15.83,294.5 -5.67,78.1 -12.66,152.9 -21.82,224.2 108.8,-286.9 184.65,-507.3 148.86,-516.9 z m 73.66,1600.9 c -124.74,94.3 -415.91,173.1 -561.82,189.7 -34.27,3.8 -136.74,4.3 -137.84,4.3 0,-104.9 -223.39,-195.5 -405.43,-183.6 -153.44,10.1 -253.08,126.7 -253.08,189.9 l -0.11,0.2 c -11.79,0 -609.73,-415 -684.92,-828.5 -5.02,-27.6 -7.75,-55.1 -7.75,-82.6 -2.4,-1966.9 -121.57,-2268.6 -83.92,-2267.9 0,0 223.72,-172.1 638.87,-212.8 53.69,-5.4 110.55,-8.4 170.57,-8.7 183.57,-0.6 352.29,19.1 501.47,49.8 83.16,17 160.32,37.5 230.49,59.8 290.63,92.1 463.71,214 462.4,248.8 -1.42,38.8 5.68,88 0.87,143.2 -18.11,208.2 -28.04,390.2 -35.68,573.4 315.39,-27.7 497.32,3.5 497.32,3.5 258.32,555.8 -162.72,1994.1 -331.44,2121.5"
         style="fill:#9ed9f0;fill-opacity:1;fill-rule:nonzero;stroke:none"
         id="path130" /><path
         d="m 4320.48,10203.8 c 0,0 -461.96,-70 -660.86,-235.8 -198.9,-165.7 -219.01,-1221.1 -285.31,-1519.5 -13.04,-58.6 -24.75,-153.1 -34.84,-268.4 -35.58,-404.9 7.05,-966.4 42.31,-1173.9 3.74,-50 1.83,-123.6 -27.12,-195.9 -50.93,-127.4 -61.84,-163.7 29.1,-236.5 90.95,-72.8 189.16,-174.6 258.29,-145.5 53.31,22.4 43.85,376 36.74,536.6 79.8,343 209.04,986.8 330.67,1610.7 162.29,831.8 311.02,1628.2 311.02,1628.2"
         style="fill:#d9935c;fill-opacity:1;fill-rule:nonzero;stroke:none"
         id="path132" /><path
         d="m 4320.49,10203.7 c 0,0 -85.78,-458.9 -198.08,-1043.9 -35.57,-185.6 -73.88,-383.9 -112.95,-584.3 -159.01,-311.5 -295.42,-523.4 -337.55,-483.5 -86,81.2 -236.93,91.2 -332.42,88.2 10.04,115.2 21.83,209.7 34.81,268.3 5.24,23.6 10.15,51.9 14.95,84 55.66,375.5 87.21,1282.9 270.33,1435.5 96.36,80.2 254.39,138 391.79,176.4 h 0.11 c 70.17,19.6 134.99,34 183.45,43.8 52.38,10.5 85.56,15.5 85.56,15.5"
         style="fill:#9ed9f0;fill-opacity:1;fill-rule:nonzero;stroke:none"
         id="path134" /><path
         d="m 3671.92,8092 c -85.97,81.1 -236.91,91.2 -332.45,88.1 10.09,115.3 21.8,209.8 34.84,268.4 5.23,23.6 10.17,51.9 14.95,84.1 l 476.65,1150.6 c 0,0 -151.85,-1631.1 -193.99,-1591.2"
         style="fill:#74acbe;fill-opacity:1;fill-rule:nonzero;stroke:none"
         id="path136" /><path
         d="m 4980.19,10215.5 c 3.5,160.6 0.85,352.4 -20.85,514.4 l -641.05,-104.8 c 0,0 0.01,-195.6 2.82,-412.7 l -0.63,-0.1 c 0,0 -17.48,-201.3 230.53,-230.8 248.01,-29.5 435.86,78.6 429.18,234"
         style="fill:#d9935c;fill-opacity:1;fill-rule:nonzero;stroke:none"
         id="path138" /><path
         d="m 4443.7,1698.8 c 80.58,49.6 33.44,419.8 33.44,419.8 0,0 -377.54,299.7 -428.42,68.9 -50.89,-230.7 -356.33,-335.4 -530.3,-364.3 -120.1,-19.9 -157.06,-86.6 -168.43,-126 l 1093.71,1.6"
         style="fill:#233862;fill-opacity:1;fill-rule:nonzero;stroke:none"
         id="path140" /><path
         d="m 5542.79,8387.2 c 0,0 -120.05,-162.3 -144.6,-162.3 -24.56,0 -327.4,117.3 -240.53,379.7 86.87,262.3 298.48,314.8 298.48,314.8 9.16,-71.3 16.15,-146.1 21.82,-224.2 6.77,-93.4 11.57,-191.5 15.83,-294.5 0.33,-7.4 0.54,-15 0.87,-22.6 16.59,3.1 32.63,6.2 48.02,9.6 l 0.11,-0.5"
         style="fill:#74acbe;fill-opacity:1;fill-rule:nonzero;stroke:none"
         id="path142" /><path
         d="m 5600.51,1698.8 c 80.59,49.6 33.45,419.8 33.45,419.8 0,0 -377.54,299.7 -428.43,68.9 -50.88,-230.7 -356.32,-335.4 -530.3,-364.3 -120.1,-19.9 -157.05,-86.6 -168.43,-126 l 1093.71,1.6"
         style="fill:#233862;fill-opacity:1;fill-rule:nonzero;stroke:none"
         id="path144" /><path
         d="m 5041.24,10914.7 c 0,0 427.94,674.7 -393.78,719.4 0,0 -308.21,-36.3 -377.98,33.5 0,0 -239.06,-363.3 -15.8,-752.9 223.25,-389.5 787.56,0 787.56,0"
         style="fill:#b64c41;fill-opacity:1;fill-rule:nonzero;stroke:none"
         id="path146" /><path
         d="m 4337.32,10562.6 c 62.29,-49 244.93,-97.6 297.73,-103.3 0,0 270.82,60.4 320.05,90.1 76.25,46.2 71.34,139.7 75.25,269.8 4.68,153.9 20.2,274.8 3.01,363.6 -20.43,106.1 -87.74,166.5 -276.18,182.9 -345.95,30.1 -490.08,-56.6 -496.11,-172.6 -1.56,-31.1 -3.01,-60.8 -4.01,-88.9 -13.85,-361.7 14.73,-490 80.26,-541.6"
         style="fill:#d9935c;fill-opacity:1;fill-rule:nonzero;stroke:none"
         id="path148" /><path
         d="m 4253.93,10985.6 c 3.35,-209.5 59.85,-333.6 100.81,-349.2 47.13,-18.1 102.61,-33 160.46,-42.9 19.48,-2.3 38.15,-1.6 37.93,9.4 -0.63,33.1 -44.79,73.8 -11.97,103.1 34.42,30.7 219.18,41 234.06,-26 7.26,-32.6 -52.31,-90.3 -11.49,-91.6 12.39,2.1 24.55,4.5 36.15,7.5 67.29,17.5 120.09,49.4 142.33,62.8 76.25,46.2 71.25,117.1 88.13,246.1 10.92,83.5 10.92,38.2 0,-85.6 -11.43,-129.6 10.92,-212.8 -75.24,-269.8 -47.95,-31.8 -324.07,-155.8 -324.07,-155.8 4.02,65.7 -231.42,120 -293.71,169 -57.83,45.5 -86.86,150.6 -83.39,423"
         style="fill:#b64c41;fill-opacity:1;fill-rule:nonzero;stroke:none"
         id="path150" /><path
         d="m 5547.59,7161.8 c 1.31,-34.8 -171.77,-156.7 -462.4,-248.8 -23.4,-7.5 -47.66,-14.6 -72.57,-21.6 l -0.59,-0.7 c -27.11,-318.1 -100.51,-767.4 -166.71,-1201.1 v -0.1 c -17.14,-112.4 -33.73,-223.7 -49.01,-331.4 -40.37,-285.1 -70.61,-544.8 -73.88,-731.8 v -1.9 c -1.42,-85.8 70.94,-299.8 76.39,-349.3 3.39,-30.2 6.12,-62.2 8.08,-95.7 7.86,-133.9 4.69,-292.1 -6.11,-461.1 -47.47,-737.3 -242.28,-1680.6 -311.8,-1720.8 -138.16,-79.9 -389.61,0.1 -517.4,18.8 -52.93,7.8 -95.27,52.9 -92.54,106.3 62.42,1223.6 -116.89,2927.7 -250.9,3975.3 -3.49,27.3 -6.99,54 -10.37,80.3 -16.04,123.5 -26.63,238.9 -33.28,342.9 -6.12,91.2 -9.06,174.1 -10.37,245.9 -0.33,22.4 -0.55,43.7 -0.66,63.9 -0.33,65.6 51.84,495 54.24,2461.9 0.05,45.4 37.26,82.6 82.7,82.6 h 1202.83 c 116.24,0 209.75,-95.1 208.3,-211.4 -1.87,-150 3.54,-359.5 36.12,-559.4 44.39,-273.1 139.47,-528.3 335.67,-589.7 l 0.48,-0.4 c 0.89,-2 6.25,-13.9 14.87,-33.8 l 0.07,-0.3 c 1.85,-49.4 3.92,-99.7 6.21,-150.9 0.44,-10.3 0.87,-20.6 1.42,-31 0.22,-6.1 0.54,-12.1 0.87,-18.2 0.44,-10.4 0.98,-20.9 1.53,-31.3 0.76,-17.3 1.64,-34.6 2.62,-52.2 0.76,-13.8 1.52,-27.5 2.29,-41.4 1.42,-26.6 3.06,-53.5 4.8,-80.7 0.44,-8.8 0.98,-17.4 1.64,-26.2 2.29,-35.2 4.69,-70.8 7.42,-106.7 0.77,-11.1 1.63,-22.1 2.51,-33.2 0.33,-5.4 0.77,-10.7 1.2,-16.1 1.09,-14 2.18,-28.1 3.38,-42.3 1.2,-15 2.51,-30 3.82,-45.2 4.81,-55.2 -2.29,-104.4 -0.87,-143.2"
         style="fill:#2b478b;fill-opacity:1;fill-rule:nonzero;stroke:none"
         id="path152" /><path
         d="m 4800.79,3718.3 c -47.47,-737.3 -242.28,-1680.6 -311.8,-1720.8 -138.16,-79.9 -389.61,0.1 -517.4,18.8 -52.93,7.8 -95.27,52.9 -92.54,106.3 62.42,1223.6 -116.89,2927.7 -250.9,3975.3 -3.49,27.3 -6.99,54 -10.37,80.3 -16.04,123.5 -26.63,238.9 -33.28,342.9 63.73,415.4 423.43,437.6 749.64,-421.6 139.79,-332.8 477.45,-2212.2 466.65,-2381.2"
         style="fill:#233862;fill-opacity:1;fill-rule:nonzero;stroke:none"
         id="path154" /><path
         d="m 5561.08,4661 c 9.88,-85.2 109.64,-287.9 121.61,-336.2 164.91,-663.2 73.81,-2235.7 -7.95,-2298.6 -126.49,-97.3 -386.3,-51 -515.4,-49.3 -53.51,0.8 -101.37,40 -105.68,93.2 -101.39,1252.9 -521.58,2973.8 -791.78,3986.1 -136.06,510 -155.34,884.9 -155.34,884.9 0,0 1262.88,773.7 1399.46,351 120.86,-374 -21.1,-1976.6 55.08,-2631.1"
         style="fill:#2b478b;fill-opacity:1;fill-rule:nonzero;stroke:none"
         id="path156" /><path
         d="m 5098.25,11744 c 0,0 -34.63,47.1 -96.68,99.8 -9.83,8.5 -20.4,17 -31.65,25.5 -114.11,86.9 -296.75,171.6 -516.92,79.8 -59.67,-24.9 -109.27,-58.7 -150.46,-97.8 -9.76,-9.2 -19,-18.7 -27.71,-28.5 -190.9,-211.8 -174.74,-544 -174.74,-544 l 1101.55,11.8 c 3.57,307.5 -103.39,453.4 -103.39,453.4"
         style="fill:#ffa412;fill-opacity:1;fill-rule:nonzero;stroke:none"
         id="path158" /><path
         d="m 4892.53,11287.4 c -0.3,4.1 -32.55,419.7 109.04,556.4 -9.83,8.5 -7.48,7 -18.73,15.5 -149.12,-155.2 -152.1,-555 -150.83,-572.6 l 60.52,0.7"
         style="fill:#e27f2b;fill-opacity:1;fill-rule:nonzero;stroke:none"
         id="path160" /><path
         d="m 4479.75,11282.9 c -10.45,269.8 -159.34,538.4 -177.21,568.4 -9.76,-9.2 -11.6,-11.1 -20.32,-20.9 25.84,-45.4 123.06,-305.5 132.36,-548.2 l -314.49,-3.4 c 0,0 293.39,-75.8 514.36,-73.1 220.97,2.8 587.19,84.9 587.19,84.9 l -721.89,-7.7"
         style="fill:#e27f2b;fill-opacity:1;fill-rule:nonzero;stroke:none"
         id="path162" /><path
         d="m 5160.14,10187.3 c 0,0 -372.19,-433.6 -394.02,-811.9 h 189.17 c 0,0 48.2,411.2 328.3,785.9 l -123.45,26"
         style="fill:#2b478b;fill-opacity:1;fill-rule:nonzero;stroke:none"
         id="path164" /><path
         d="m 4234.93,10188.2 c -266.61,-403.5 -298.26,-812.8 -298.26,-812.8 h -189.13 c 15.72,297.4 200.7,614.1 303.83,769 h 0.11 c 70.17,19.6 134.99,34 183.45,43.8"
         style="fill:#2b478b;fill-opacity:1;fill-rule:nonzero;stroke:none"
         id="path166" /><path
         d="m 4475.7,7797.5 c -18.4,402.4 108.8,1212.6 296.9,1793.8 21.1,65 42.9,127.2 65.4,185.7 8.4,17.8 16.8,35.1 25.2,52.2 -144.8,-396.6 -253.6,-963.4 -300.8,-1439.4 -24.2,-246.1 -31.9,-467.9 -19.7,-629.5 22,-290.4 203,-533 425.4,-687.3 -310.1,171.4 -481.1,476.4 -492.4,724.5 z M 4931,7008.7 c -403.6,190 -604.8,583.3 -594.9,873.6 8.6,257.7 90,674.7 208.6,1087.3 -92.5,-446 -144.1,-898.4 -131.4,-1176.3 16,-351.9 266,-644.5 545.2,-796.9 -9.2,3.8 -18.2,7.9 -27.5,12.3 z m -675.3,873.6 c 15.8,469.1 272.3,1465.4 555.9,2003.3 -9.9,-23.8 -19.9,-48.4 -29.7,-73.7 -268,-567.6 -493.1,-1470.3 -508.4,-1926.5 -6.5,-190.8 56.8,-372.3 158.5,-528 -122.5,171.9 -181.8,364.2 -176.3,524.9 z m 1900.6,-37.6 c -7.1,144.1 -26.8,315.5 -64.4,519.3 -0.1,-98.2 -6.5,-191.1 -20.9,-275.1 46.8,-373 28.7,-658.1 -54.4,-819.5 -51.5,-100.1 -122.8,-176.9 -209.1,-228.3 44,42.8 82.8,93.8 115.6,152.6 63.9,114.5 122.7,327.6 100.9,720.7 -4.4,-11.2 -9,-22 -13.9,-32.5 0,0 -16.2,-2.8 -47.4,-6 12.8,-287.4 -17.9,-507.5 -91.3,-639.2 -55.6,-99.8 -131.1,-174.3 -221.2,-221.7 28.4,28.1 54.5,59.7 78.7,95 75.8,111.4 154.9,330.4 158.3,760.2 -18.9,-1.1 -39.9,-2 -62.9,-2.6 -3.5,-329.5 -52.1,-574.7 -143.6,-708.7 -4.2,-6.2 -8.6,-12.4 -13.1,-18.4 69.4,119.1 135.8,335 139.2,726.8 -19.7,-0.3 -40.7,-0.5 -63,-0.3 -3.3,-329.2 -52.1,-574.2 -143.5,-708.1 -57.3,-83.9 -129.1,-145.4 -211.6,-183.3 -25.2,4.3 -51,10 -76.9,16.9 -3.5,0.8 -7,1.7 -10.4,2.8 l -1.1,0.3 c -3.4,0.9 -6.9,1.9 -10.3,2.9 -31.6,9.2 -62.3,19.7 -92,31.5 -363.9,144.5 -572.7,469.9 -593,737.4 -14.4,190 1,472.9 39.4,780.6 75.6,606.4 240.3,1309.4 440.6,1588.8 3.4,4.7 6.6,9.3 10,13.7 l 0.1,0.1 c 4.2,5.5 8.4,10.9 12.7,15.9 7.4,8.9 14.7,17.2 22.2,24.8 l 0.2,0.2 c 15.7,16.1 31.4,28.8 46.7,38.2 4.2,-2.5 8.8,-5.6 13.8,-9.6 13,-9.9 28.5,-25 46.4,-47.8 l 0.4,-0.5 c 20.9,-4.5 42.6,-9.7 64.8,-15.3 10.3,-2.8 20.9,-5.5 31.5,-8.6 l 2,-0.5 c 2.5,-0.5 5,-1.3 7.4,-2 13,-3.6 26,-7.4 39.1,-11.3 7.4,-2.3 14.9,-4.6 22.3,-6.9 8.8,-2.8 17.5,-5.6 26.2,-8.5 9.5,-3.2 19,-6.4 28.4,-9.7 10,-3.5 20,-7.1 29.8,-10.8 l -0.6,0.9 c -117.9,185.8 -201.7,229.1 -256.1,226.5 -8.5,-0.4 -16.9,-1.5 -25.5,-3.4 -9.9,2.6 -19,3.7 -27.3,3.7 -18.2,-0.1 -36.5,-3.5 -54.8,-10.1 -56,-5.4 -114.9,-40.8 -175.9,-105.9 -4.2,-4.3 -8.3,-8.9 -12.5,-13.6 -33.9,-38.2 -67.8,-84.7 -101.6,-138 l -0.6,-0.9 c -322.5,-509.7 -623.2,-1642 -641.1,-2172 -14.1,-419.4 308.8,-794.4 635.1,-948 31.9,-15 63.6,-28 94.9,-38.9 17.7,-6.2 35.2,-11.7 52.6,-16.6 l 1.1,-0.3 c 67.6,-19 133.3,-28.4 196.3,-28.4 13.5,0 26.8,0.4 40,1.3 13.6,-0.9 27.1,-1.3 40.5,-1.3 59.3,0 116.3,8.3 170.1,24.8 8.5,0.4 17,1 25.4,1.6 7.2,0.7 14.4,1.3 21.4,2.2 13.8,1.6 27.5,3.7 41,6.2 39.5,-0.2 78,2.7 115.2,8.9 117.2,19.2 221.2,69.6 306.3,148.8 53.6,49.8 99.7,111 136.8,183 54.4,106 102.6,292.2 86.6,616"
         style="fill:#ffa412;fill-opacity:1;fill-rule:nonzero;stroke:none"
         id="path168" /><path
         d="m 5542.79,8387.2 c -10.26,-1.5 -203.64,-36.8 -214.23,-38.3 -322.1,-47.2 -755.48,-68.1 -800.62,-70.1 -4.22,3.9 -157.97,147.1 -217.93,147.1 -60.79,0 -236,-63.8 -253.88,-112.9 -17.88,-49.2 -25.03,-137.6 25.03,-157.2 50.06,-19.6 257.46,-68.7 311.1,-73.7 7.33,-0.6 16.15,-0.6 25.75,0.3 385.26,-113.2 716.89,-168.9 972.43,-195.2 22.81,-2.4 154.6,-19.5 271.66,-18.3 -4.04,222.4 -78.93,427.9 -119.31,518.3"
         style="fill:#d9935c;fill-opacity:1;fill-rule:nonzero;stroke:none"
         id="path170" /><path
         d="m 12241.1,12705.9 h -388.3 v 271.9 h 388.3 z m 0,-356.5 h -388.3 v 271.9 h 388.3 z m 0,-356.6 h -388.3 v 271.9 h 388.3 z m 0,-356.5 h -388.3 v 271.9 h 388.3 z m 0,-356.6 h -388.3 v 271.9 h 388.3 z m 0,-304.6 h -388.3 v 220 h 388.3 z m 0,-356.5 h -388.3 v 271.9 h 388.3 z m 0,-356.6 h -388.3 v 271.9 h 388.3 z m 0,-356.5 h -388.3 v 271.9 h 388.3 z m 0,-356.6 h -388.3 v 271.9 h 388.3 z m 0,-356.5 h -388.3 v 271.9 h 388.3 z m 0,-344.1 h -388.3 v 259.5 h 388.3 z m 0,-356.6 h -388.3 v 271.9 h 388.3 z m 0,-356.5 h -388.3 v 271.9 h 388.3 z m 0,-356.6 h -388.3 v 271.9 h 388.3 z m 0,-356.5 h -388.3 V 7694 h 388.3 z m 0,-356.6 h -388.3 v 272 h 388.3 z m 0,-304.6 h -388.3 v 220 h 388.3 z m 0,-356.5 h -388.3 v 271.9 h 388.3 z m 0,-356.6 h -388.3 v 271.9 h 388.3 z m 0,-356.5 h -388.3 v 271.9 h 388.3 z m 0,-356.6 h -388.3 v 272 h 388.3 z m 0,-356.5 h -388.3 v 271.9 h 388.3 z m 0,-327.2 h -388.3 v 242.6 h 388.3 z m 0,-356.5 h -388.3 v 271.9 h 388.3 z m 0,-356.6 h -388.3 v 271.9 h 388.3 z m 0,-356.5 h -388.3 v 271.9 h 388.3 z m 0,-356.6 h -388.3 v 271.9 h 388.3 z m 0,-356.5 h -388.3 v 271.9 h 388.3 z m 0,-304.6 h -388.3 v 220 h 388.3 z m 0,-356.6 h -388.3 V 2479 h 388.3 z m 0,-356.5 h -388.3 v 271.9 h 388.3 z m -1505.3,271.9 h 388.3 v -271.9 h -388.3 z m 0,356.5 h 388.3 v -271.9 h -388.3 z m 0,304.7 h 388.3 v -220 h -388.3 z m 0,356.5 h 388.3 v -271.9 h -388.3 z m 0,356.5 h 388.3 v -271.9 h -388.3 z m 0,356.6 h 388.3 v -271.9 h -388.3 z m 0,356.5 h 388.3 v -271.9 h -388.3 z m 0,356.6 h 388.3 v -271.9 h -388.3 z m 0,327.2 h 388.3 V 4651 h -388.3 z m 0,356.5 h 388.3 v -271.9 h -388.3 z m 0,356.6 h 388.3 v -272 h -388.3 z m 0,356.5 h 388.3 v -271.9 h -388.3 z m 0,356.5 h 388.3 v -271.9 h -388.3 z m 0,356.6 h 388.3 v -271.9 h -388.3 z m 0,304.6 h 388.3 v -220 h -388.3 z m 0,356.6 h 388.3 v -272 h -388.3 z m 0,356.5 h 388.3 v -271.9 h -388.3 z m 0,356.5 h 388.3 v -271.9 h -388.3 z m 0,356.6 h 388.3 v -271.9 h -388.3 z m 0,356.5 h 388.3 v -271.9 h -388.3 z m 0,344.2 h 388.3 v -259.5 h -388.3 z m 0,356.5 h 388.3 v -271.9 h -388.3 z m 0,356.5 h 388.3 v -271.9 h -388.3 z m 0,356.6 h 388.3 v -271.9 h -388.3 z m 0,356.5 h 388.3 V 10262 h -388.3 z m 0,356.6 h 388.3 v -271.9 h -388.3 z m 0,304.6 h 388.3 v -220 h -388.3 z m 0,356.5 h 388.3 v -271.9 h -388.3 z m 0,356.6 h 388.3 v -271.9 h -388.3 z m 0,356.5 h 388.3 v -271.9 h -388.3 z m 0,356.6 h 388.3 v -271.9 h -388.3 z m 0,356.5 h 388.3 v -271.9 h -388.3 z m 541.6,-628.4 v 271.9 h 422.2 v -271.9 z m 0,-356.6 v 271.9 h 422.2 v -271.9 z m 0,-356.5 v 271.9 h 422.2 v -271.9 z m 0,-356.6 v 271.9 h 422.2 v -271.9 z m 0,-304.6 v 220 h 422.2 v -220 z m 0,-356.5 v 271.9 h 422.2 v -271.9 z m 0,-356.6 v 271.9 h 422.2 V 10262 Z m 0,-356.5 v 271.9 h 422.2 v -271.9 z m 0,-356.6 v 271.9 h 422.2 v -271.9 z m 0,-356.5 v 271.9 h 422.2 v -271.9 z m 0,-344.1 v 259.5 h 422.2 v -259.5 z m 0,-356.6 v 271.9 h 422.2 v -271.9 z m 0,-356.5 v 271.9 h 422.2 v -271.9 z m 0,-356.6 v 271.9 h 422.2 v -271.9 z m 0,-356.5 V 7694 h 422.2 v -271.9 z m 0,-356.6 v 272 h 422.2 v -272 z m 0,-304.6 v 220 h 422.2 v -220 z m 0,-356.5 v 271.9 h 422.2 v -271.9 z m 0,-356.6 v 271.9 h 422.2 v -271.9 z m 0,-356.5 v 271.9 h 422.2 v -271.9 z m 0,-356.6 v 272 h 422.2 v -272 z m 0,-356.5 v 271.9 h 422.2 v -271.9 z m 0,-327.2 v 242.6 h 422.2 V 4651 Z m 0,-356.5 v 271.9 h 422.2 v -271.9 z m 0,-356.6 v 271.9 h 422.2 v -271.9 z m 0,-356.5 v 271.9 h 422.2 v -271.9 z m 0,-356.6 v 271.9 h 422.2 v -271.9 z m 0,-356.5 v 271.9 h 422.2 v -271.9 z m 0,-304.6 v 220 h 422.2 v -220 z m 422.2,-441.2 v -271.9 h -422.2 v 271.9 z m -422.2,84.6 V 2479 h 422.2 v -271.9 z m 422.2,10770.7 v -271.9 h -422.2 v 271.9 z m 880,0 v 84.6 h -185.2 v 558.5 h -153.3 v -558.5 h -388.3 v 558.5 h -153.2 v -558.5 h -422.2 v 558.5 h -153.3 v -558.5 h -388.3 v 558.5 h -153.3 v -558.5 h -203 v -84.6 h 203 v -271.9 h -203 v -84.6 h 203 v -271.9 h -203 v -84.7 h 203 v -271.9 h -203 v -84.6 h 203 v -271.9 h -203 v -84.7 h 203 v -271.9 h -203 v -84.6 h 203 v -220 h -203 v -84.6 h 203 v -271.9 h -203 v -84.7 h 203 V 10262 h -203 v -84.6 h 203 v -271.9 h -203 v -84.7 h 203 v -271.9 h -203 v -84.6 h 203 v -271.9 h -203 v -84.6 h 203 v -259.5 h -203 v -84.7 h 203 v -271.9 h -203 v -84.6 h 203 v -271.9 h -203 v -84.7 h 203 v -271.9 h -203 V 7694 h 203 v -271.9 h -203 v -84.6 h 203 v -272 h -203 v -84.6 h 203 v -220 h -203 v -84.6 h 203 v -271.9 h -203 v -84.7 h 203 v -271.9 h -203 v -84.6 h 203 v -271.9 h -203 v -84.6 h 203 v -272 h -203 v -84.6 h 203 v -271.9 h -203 v -84.6 h 203 V 4651 h -203 v -84.6 h 203 v -271.9 h -203 v -84.7 h 203 v -271.9 h -203 v -84.6 h 203 v -271.9 h -203 v -84.7 h 203 v -271.9 h -203 v -84.6 h 203 v -271.9 h -203 v -84.6 h 203 v -220 h -203 V 2479 h 203 v -271.9 h -203 v -84.6 h 203 v -271.9 h -203 v -84.7 h 2200.1 v 84.7 h -185.2 v 271.9 h 185.2 v 84.6 h -185.2 V 2479 h 185.2 v 84.7 h -185.2 v 220 h 185.2 v 84.6 h -185.2 v 271.9 h 185.2 v 84.6 h -185.2 v 271.9 h 185.2 v 84.7 h -185.2 v 271.9 h 185.2 v 84.6 h -185.2 v 271.9 h 185.2 v 84.7 h -185.2 v 271.9 h 185.2 v 84.6 h -185.2 v 242.6 h 185.2 v 84.6 h -185.2 v 271.9 h 185.2 v 84.6 h -185.2 v 272 h 185.2 v 84.6 h -185.2 v 271.9 h 185.2 v 84.6 h -185.2 v 271.9 h 185.2 v 84.7 h -185.2 v 271.9 h 185.2 v 84.6 h -185.2 v 220 h 185.2 v 84.6 h -185.2 v 272 h 185.2 v 84.6 h -185.2 V 7694 h 185.2 v 84.6 h -185.2 v 271.9 h 185.2 v 84.7 h -185.2 v 271.9 h 185.2 v 84.6 h -185.2 v 271.9 h 185.2 v 84.7 h -185.2 v 259.5 h 185.2 v 84.6 h -185.2 v 271.9 h 185.2 v 84.6 h -185.2 v 271.9 h 185.2 v 84.7 h -185.2 v 271.9 h 185.2 v 84.6 h -185.2 v 271.9 h 185.2 v 84.7 h -185.2 v 271.9 h 185.2 v 84.6 h -185.2 v 220 h 185.2 v 84.6 h -185.2 v 271.9 h 185.2 v 84.7 h -185.2 v 271.9 h 185.2 v 84.6 h -185.2 v 271.9 h 185.2 v 84.7 h -185.2 v 271.9 h 185.2 v 84.6 h -185.2 v 271.9 h 185.2"
         style="fill:#d2e4ff;fill-opacity:1;fill-rule:nonzero;stroke:none"
         id="path172" /><path
         d="m 14389.2,17179.5 h 54.3 v 965.6 h -54.3 v -965.6"
         style="fill:#d2e4ff;fill-opacity:1;fill-rule:nonzero;stroke:none"
         id="path174" /><path
         d="m 17394.5,17179.5 h 54.2 v 965.6 h -54.2 v -965.6"
         style="fill:#d2e4ff;fill-opacity:1;fill-rule:nonzero;stroke:none"
         id="path176" /><path
         d="m 14769,17179.5 h 54.2 v 965.6 h -54.2 v -965.6"
         style="fill:#d2e4ff;fill-opacity:1;fill-rule:nonzero;stroke:none"
         id="path178" /><path
         d="m 17665.7,18145.1 v -965.6 h 54.3 v 965.6 h -54.3"
         style="fill:#d2e4ff;fill-opacity:1;fill-rule:nonzero;stroke:none"
         id="path180" /><path
         d="m 6761.49,3912.4 c -17.29,4 -34.66,-6.9 -38.62,-24.2 L 6430.05,2609.4 c -79.08,-2.4 -159.5,-88 -186.81,-207.3 l -27.9,-121.8 c -1.45,-6.4 -3.2,-14 -3.81,-20.5 l 325.17,-74.5 c 3.12,6 4.87,13.6 6.32,19.9 l 27.9,121.9 c 27.24,118.9 -7.64,230.8 -78.05,267.7 l 292.85,1279 c 3.96,17.3 -6.95,34.7 -24.23,38.6"
         style="fill:#2b478b;fill-opacity:1;fill-rule:nonzero;stroke:none"
         id="path182" /><path
         d="m 5910.53,2261.8 c 0,0 675.36,174.9 890.99,32.5 215.63,-142.4 -109.85,-292.9 -109.85,-292.9 l -781.14,260.4"
         style="fill:#e69d43;fill-opacity:1;fill-rule:nonzero;stroke:none"
         id="path184" /><path
         d="m 11126,9973.5 c -129.1,-395.2 -832.7,-1078.2 -929.9,-1146.3 0,0 -163.7,272.8 -131,425.6 26.7,124.7 300.7,569.3 394.4,787.8 4.9,11.4 9.3,22.2 13.1,32.2 12.9,33.5 19.7,59.5 18.1,74.9 -4.7,47.5 -153.8,162.9 -327.3,299.9 -225.32,178.1 -491.61,392.3 -534.83,540.4 -76.39,261.9 -341.04,1299 -341.04,1299 0,0 657.53,-142.2 843.07,-305.9 185.5,-163.7 982.2,-1527.8 1014.9,-1877.1 3.6,-38 -3.6,-82.1 -19.5,-130.5"
         style="fill:#ffa412;fill-opacity:1;fill-rule:nonzero;stroke:none"
         id="path186" /><path
         d="m 11126,9973.5 c -129.1,-395.2 -832.7,-1078.2 -929.9,-1146.3 0,0 -163.7,272.8 -131,425.6 28.2,131.2 329.8,616.4 407.5,820 116.9,20.3 391.4,45.2 653.4,-99.3"
         style="fill:#d9935c;fill-opacity:1;fill-rule:nonzero;stroke:none"
         id="path188" /><path
         d="m 9287.75,12378.2 -0.44,-80.6 c 0,0 21.94,-251.8 -288.22,-288.6 -310.15,-36.9 -543.7,75.6 -535.3,270 27.94,150.5 57.19,276.4 59.26,400.9 0.77,46.3 -2.4,95.4 -11.02,150.9 l 601,12 177.01,-29 -2.29,-435.6"
         style="fill:#d9935c;fill-opacity:1;fill-rule:nonzero;stroke:none"
         id="path190" /><path
         d="m 9290.04,12813.8 -2.29,-435.6 c -63.84,-29.7 -135.87,-47.8 -216.63,-47.8 -276.22,0 -454.76,202.5 -548.07,349.5 0.77,46.3 -2.4,95.4 -11.02,150.9 l 601,12 177.01,-29"
         style="fill:#cb7d45;fill-opacity:1;fill-rule:nonzero;stroke:none"
         id="path192" /><path
         d="m 8758.01,1698 c 0,0 -29.17,227.3 -96.73,362.4 -67.55,135.1 -497.46,49.1 -497.46,49.1 0,0 -85.98,-73.7 -104.41,-417.6 l 698.6,6.1"
         style="fill:#233862;fill-opacity:1;fill-rule:nonzero;stroke:none"
         id="path194" /><path
         d="m 10222.7,1698.8 c -101,61.6 -43.5,521.6 -43.5,521.6 0,0 470.7,376.6 535.4,88.3 64.7,-288.3 447.2,-417.8 664.9,-453.1 150.3,-24.4 196.8,-107.6 211.2,-156.8 h -1368"
         style="fill:#233862;fill-opacity:1;fill-rule:nonzero;stroke:none"
         id="path196" /><path
         d="m 9247.74,5095.4 c 19.16,-105.6 31.32,-192.2 34.55,-254.3 43.75,-853.5 718.41,-2805 839.11,-2850.5 186.8,-70.5 480.8,79.3 634.7,128.3 63.7,20.4 106.7,84.7 92.5,149.9 -334.1,1536.1 -456.9,3747.9 -501.6,5057.4 -22.5,659.6 -135.7,1115.3 -135.7,1115.3 0,0 -1645.64,439 -1655.4,-116.4 -8.66,-491.4 545.09,-2418.9 691.84,-3229.7"
         style="fill:#2b478b;fill-opacity:1;fill-rule:nonzero;stroke:none"
         id="path198" /><path
         d="M 9247.74,5095.4 10347,7326.2 c -22.5,659.6 -135.7,1115.3 -135.7,1115.3 0,0 -1645.64,439 -1655.4,-116.4 -8.66,-491.4 545.09,-2418.9 691.84,-3229.7"
         style="fill:#233862;fill-opacity:1;fill-rule:nonzero;stroke:none"
         id="path200" /><path
         d="m 9613.87,8323.2 -869.92,-6305 c 0,0 -382.03,-92.1 -679.16,-18.4 0,0 -254.68,3353.3 -233.46,4163.9 21.22,810.7 -182.79,2169.3 46.56,2319.1 229.35,149.8 1735.98,-159.6 1735.98,-159.6"
         style="fill:#2b478b;fill-opacity:1;fill-rule:nonzero;stroke:none"
         id="path202" /><path
         d="m 10258.6,8311.5 c 0,0 -444.5,-259.2 -1088.39,-251.9 -251,2.9 -469.38,21.6 -654.69,49.3 -516.42,76.6 -777.03,220.7 -774.95,274.4 1.74,48.5 5.12,209.5 11.24,278.7 82.06,946.4 39.61,1682.5 150.06,2235.4 1.3,6.7 2.61,13.4 4.03,19.9 146.13,703.1 375.2,1107 488.92,1272.6 41.58,60.5 67.66,89.1 68.97,89.1 0,-131.2 279.38,-244.5 507.15,-229.6 191.85,12.5 316.37,158.4 316.37,237.4 l 0.22,0.2 c 15.72,0 865.47,-590.6 866.17,-1139.4 3,-2459.7 152,-2836.9 104.9,-2836.1"
         style="fill:#ffa412;fill-opacity:1;fill-rule:nonzero;stroke:none"
         id="path204" /><path
         d="m 8516.72,8116.9 c -0.44,-2.7 -0.76,-5.4 -1.2,-8 -516.42,76.6 -777.03,220.7 -774.95,274.4 1.74,48.5 5.12,209.5 11.24,278.7 82.06,946.4 39.61,1682.5 150.06,2235.4 271.08,-362.3 828.32,-1311.2 614.85,-2780.5"
         style="fill:#e27f2b;fill-opacity:1;fill-rule:nonzero;stroke:none"
         id="path206" /><path
         d="m 9931.32,9293.4 -69.41,-231 -68.97,-229.1 -2995.72,901.1 c -4.26,-0.2 -8.4,0.2 -12.33,1.4 -4.15,1.2 -7.97,3.2 -11.57,5.7 -37.76,26.7 -44.64,124.6 -15.61,234.9 1.53,6.1 3.28,12.3 5.13,18.5 35.04,118.6 98.77,206.3 147.66,207.1 4.04,0.1 7.86,-0.4 11.68,-1.5 3.93,-1.2 7.53,-3 11.02,-5.4 l 2998.12,-901.7"
         style="fill:#e9f3fe;fill-opacity:1;fill-rule:nonzero;stroke:none"
         id="path208" /><path
         d="m 9861.91,9062.4 -68.97,-229.1 -2995.72,901.1 c -4.26,-0.2 -8.4,0.2 -12.33,1.4 -4.15,1.2 -7.97,3.2 -11.57,5.7 -37.76,26.7 -44.64,124.6 -15.61,234.9 122.45,-91.9 707.3,-498.4 1705.54,-696.1 1031.86,-204.4 1351.19,-217.2 1398.66,-217.9"
         style="fill:#bed4f4;fill-opacity:1;fill-rule:nonzero;stroke:none"
         id="path210" /><path
         d="m 9937.07,9294.7 c -50.1,14.8 -121.44,-77.3 -159.35,-205.6 -37.9,-128.3 -28.02,-244.4 22.08,-259.2 50.1,-14.8 121.44,77.3 159.34,205.6 37.91,128.4 28.02,244.4 -22.07,259.2"
         style="fill:#afcdfb;fill-opacity:1;fill-rule:nonzero;stroke:none"
         id="path212" /><path
         d="m 6954.91,10279.8 -353.16,57.3 c -3.82,1.8 -7.53,3.1 -11.67,3.8 -3.93,0.5 -7.75,0.6 -11.68,0 -48.45,-7.2 -100.07,-102.5 -119.28,-224.7 -1.09,-6.5 -1.97,-12.7 -2.73,-19 -6.88,-54.2 -5.9,-104.3 1.31,-144.3 7.86,-42.9 23.03,-74.1 43.76,-85.8 l 1.2,-0.8 c 3.93,-2 7.97,-3.4 12.22,-4.1 4.04,-0.6 8.19,-0.5 12.44,0.2 l 3087.94,-501 38.3,236.2 38.53,238 -2737.18,444.2"
         style="fill:#e9f3fe;fill-opacity:1;fill-rule:nonzero;stroke:none"
         id="path214" /><path
         d="m 8238.43,9630.4 c -660.48,42.5 -1010.57,391.7 -1283.52,649.4 l -353.16,57.3 c -3.82,1.8 -7.53,3.1 -11.67,3.8 -3.93,0.5 -7.75,0.6 -11.68,0 -48.45,-7.2 -100.07,-102.5 -119.28,-224.7 -1.09,-6.5 -1.97,-12.7 -2.73,-19 -6.88,-54.2 -5.9,-104.3 1.31,-144.3 16.59,-46.9 33.61,-78.8 43.76,-85.8 l 1.2,-0.8 c 3.93,-2 7.97,-3.4 12.22,-4.1 4.04,-0.6 8.19,-0.5 12.44,0.2 l 3087.94,-501 38.3,236.2 c -47.14,-5.6 -365.37,-34.7 -1415.13,32.8"
         style="fill:#bed4f4;fill-opacity:1;fill-rule:nonzero;stroke:none"
         id="path216" /><path
         d="m 9697.67,9837.7 c -51.61,8.1 -110.28,-92.5 -131.05,-224.7 -20.77,-132.2 4.22,-245.9 55.83,-254 51.6,-8.2 110.27,92.4 131.05,224.6 20.76,132.2 -4.23,246 -55.83,254.1"
         style="fill:#afcdfb;fill-opacity:1;fill-rule:nonzero;stroke:none"
         id="path218" /><path
         d="m 8599.12,8929 c -716.24,113.9 -1189.67,414.1 -1384.04,559.2 -66.35,49.6 -100.18,81.1 -100.18,81.1 -367.01,771.6 296.96,2124.4 418.31,2353.7 130.96,247.3 930.58,356 930.58,356 0,0 -127.69,-375.7 -177.56,-865.3 -49.87,-489.7 -582.01,-1444.2 -560.18,-1524.3 5.45,-20.2 69.74,-62.6 163.48,-116 277.97,-158.3 815.12,-413.4 847.75,-473.3 43.65,-80 -138.16,-371.1 -138.16,-371.1"
         style="fill:#d9935c;fill-opacity:1;fill-rule:nonzero;stroke:none"
         id="path220" /><path
         d="m 8737.32,9300.1 c 0,0 400.16,160.1 498.37,94.6 98.23,-65.5 261.93,-163.7 261.93,-229.2 0,-65.5 -207.36,-240.1 -381.98,-294.7 -174.6,-54.5 -516.56,58.2 -516.56,58.2 l 138.24,371.1"
         style="fill:#d9935c;fill-opacity:1;fill-rule:nonzero;stroke:none"
         id="path222" /><path
         d="m 8286.23,11413.7 c -49.87,-489.7 -582.01,-1444.2 -560.18,-1524.3 5.45,-20.2 69.74,-62.6 163.48,-116 -5.89,-0.5 -11.89,-0.6 -18.01,-0.4 -418.63,18.5 -608.09,-213.1 -656.44,-284.8 -66.35,49.6 -100.18,81.1 -100.18,81.1 -367.01,771.6 296.96,2124.4 418.31,2353.7 130.96,247.3 930.58,356 930.58,356 0,0 -127.69,-375.7 -177.56,-865.3"
         style="fill:#ffa412;fill-opacity:1;fill-rule:nonzero;stroke:none"
         id="path224" /><path
         d="m 9325.12,12602.1 c 0,0 -769.72,-155.5 -859.18,325.4 -89.45,480.8 -249.05,784.6 238.62,904.2 487.67,119.6 617.56,-46.1 686.46,-199.3 68.89,-153.2 132.02,-977.4 -65.9,-1030.3"
         style="fill:#d9935c;fill-opacity:1;fill-rule:nonzero;stroke:none"
         id="path226" /><path
         d="m 8481.32,12788.8 c 0,0 -148.81,317.6 -272.91,458.6 -124.1,141.1 -56.41,846.2 479.48,823.6 535.89,-22.5 727.69,-406.1 733.33,-479.4 5.64,-73.4 -428.72,-17 -547.18,-112.9 -118.45,-95.9 -5.64,-253.8 -141.02,-310.2 -135.38,-56.4 -242.56,-56.4 -220,-180.5 22.57,-124.1 -31.7,-199.2 -31.7,-199.2"
         style="fill:#233862;fill-opacity:1;fill-rule:nonzero;stroke:none"
         id="path228" /><path
         d="m 8646.7,14398.4 c -153.33,-38.5 -268.36,-100 -354.25,-174.1 -8.51,-7.3 -16.81,-14.9 -24.77,-22.5 l -0.11,-0.1 c -317.79,-303.1 -190.98,-785.4 -190.98,-785.4 0,0 42.31,-121.9 71.41,-169.2 29.1,-47.3 451.08,7.3 472.91,98.2 21.82,91 105.5,185.5 105.5,185.5 0,0 444.8,30.6 474.72,32.8 100.49,7.3 387.28,107 387.28,107 -3.27,28.2 -164.68,923 -941.71,727.8"
         style="fill:#ffa412;fill-opacity:1;fill-rule:nonzero;stroke:none"
         id="path230" /><path
         d="m 9851.92,13765.2 c -53.37,13 -144.35,27.5 -294.28,33 0,0 -125.9,-104.3 -376.18,-183.8 -117.63,148.3 -452.7,505.4 -889.01,609.9 -1.31,0.3 -2.51,0.6 -3.82,1 -9.27,-11.7 -14.51,-15.6 -20.95,-23.5 l -0.11,-0.1 c -1.96,-2.3 -4.04,-5 -6.33,-8.4 355.19,-61.9 692.79,-460.8 808.66,-610.2 -99.43,-24.4 -213.81,-43.7 -343.49,-52.3 0,0 777.41,-14.5 1132.73,172.6 27.07,14.3 22.51,54.5 -7.22,61.8"
         style="fill:#e27f2b;fill-opacity:1;fill-rule:nonzero;stroke:none"
         id="path232" /><path
         d="m 10643.5,10235 c -14.4,-81.6 -58.4,-167.5 -184,-194.4 4.9,11.4 9.3,22.2 13.1,32.2 12.9,33.5 19.7,59.5 18.1,74.9 -4.7,47.5 -153.8,162.9 -327.3,299.9 -14.3,77.7 -49.2,308.3 -0.1,491.3 60.1,223.7 496.6,-611.1 480.2,-703.9"
         style="fill:#e27f2b;fill-opacity:1;fill-rule:nonzero;stroke:none"
         id="path234" /><path
         d="m 7806.04,9828.5 c 0,0 -534.75,43.6 -709.37,-267.4 0,0 14.92,-104.9 118.41,-72.9 0,0 452.37,309.2 674.45,285.2 0,0 -34.37,54.2 -83.49,55.1"
         style="fill:#e27f2b;fill-opacity:1;fill-rule:nonzero;stroke:none"
         id="path236" /><path
         d="m 10459.5,10040.6 c 0,0 277.5,-11.6 626.7,-163.7 0,0 77.5,76.2 46.6,119.8 -30.9,43.7 -522.6,200.6 -673.3,43.9"
         style="fill:#e27f2b;fill-opacity:1;fill-rule:nonzero;stroke:none"
         id="path238" /><path
         d="m 14310.6,11857.3 c 240.4,1232.3 460.8,2412.1 460.8,2412.1 0,0 -684.4,-103.7 -979.1,-349.3 -294.6,-245.5 -324.4,-1809.1 -422.6,-2251.1 -19.4,-86.7 -36.7,-226.9 -51.7,-397.6 -55.8,-635.6 13.7,-1587.6 66.3,-1854.5 -3.4,-25.6 -25.2,-151.6 -141.2,-393.3 0,0 -60.1,-185.5 332.8,-463.8 250.4,-177.4 473.6,1958 734.7,3297.5"
         style="fill:#d9935c;fill-opacity:1;fill-rule:nonzero;stroke:none"
         id="path240" /><path
         d="m 14771.4,14269.4 c 0,0 -127.1,-680 -293.4,-1546.6 -52.7,-275 -109.4,-568.7 -167.4,-865.5 -235.5,-461.7 -437.6,-775.5 -500,-716.5 -127.4,120.3 -351,135.1 -492.6,130.6 15,170.7 32.3,310.9 51.7,397.6 7.7,34.9 15,76.9 22.1,124.5 82.4,556.2 129.1,1900.5 400.5,2126.6 294.7,245.6 979.1,349.3 979.1,349.3"
         style="fill:#739af0;fill-opacity:1;fill-rule:nonzero;stroke:none"
         id="path242" /><path
         d="m 14478,12722.8 c -52.7,-275 -109.4,-568.7 -167.4,-865.5 -235.5,-461.7 -437.6,-775.5 -500,-716.5 -127.4,120.3 -351,135.1 -492.6,130.6 15,170.7 32.3,310.9 51.7,397.6 7.7,34.9 15,76.9 22.1,124.5 l 706.1,1704.6 380.1,-775.3"
         style="fill:#4a75cb;fill-opacity:1;fill-rule:nonzero;stroke:none"
         id="path244" /><path
         d="m 15748.7,14286.7 c 5.2,238 1.3,522.1 -30.9,762.1 l -949.7,-155.2 c 0,0 0,-289.8 4.2,-611.4 l -0.9,-0.1 c 0,0 -25.9,-298.4 341.5,-342 367.4,-43.7 645.7,116.4 635.8,346.6"
         style="fill:#d9935c;fill-opacity:1;fill-rule:nonzero;stroke:none"
         id="path246" /><path
         d="m 14765.5,14835 c 0,0 223.7,-458.4 480.2,-458.4 256.4,0 496.5,431.1 496.5,431.1 l -976.7,27.3"
         style="fill:#cb7d45;fill-opacity:1;fill-rule:nonzero;stroke:none"
         id="path248" /><path
         d="m 15398.5,1697.1 c 0,0 34.5,269.2 114.5,429.3 80.1,160 589.4,58.2 589.4,58.2 0,0 101.8,-87.3 123.7,-494.8 l -827.6,7.3"
         style="fill:#233862;fill-opacity:1;fill-rule:nonzero;stroke:none"
         id="path250" /><path
         d="m 13663.3,1700.8 c 119.6,73 51.6,617.9 51.6,617.9 0,0 -557.7,446.1 -634.3,104.6 -76.7,-341.6 -529.8,-494.9 -787.7,-536.8 -178,-28.8 -233.1,-127.4 -250.2,-185.7 h 1620.6"
         style="fill:#233862;fill-opacity:1;fill-rule:nonzero;stroke:none"
         id="path252" /><path
         d="m 15839.1,15322.6 c 0,0 634,999.6 -583.3,1065.7 0,0 -456.6,-53.7 -560,49.6 0,0 -354.1,-538.2 -23.4,-1115.3 330.7,-577 1166.7,0 1166.7,0"
         style="fill:#233862;fill-opacity:1;fill-rule:nonzero;stroke:none"
         id="path254" /><path
         d="m 14796.3,14801 c 92.3,-72.6 362.9,-144.7 441.1,-153.1 0,0 401.2,89.4 474.1,133.4 113,68.5 105.7,207.1 111.5,399.8 7,228 29.9,407.1 4.5,538.6 -30.3,157.3 -130,246.8 -409.2,271.1 -512.5,44.5 -726,-83.9 -734.9,-255.7 -2.4,-46.2 -4.5,-90.2 -6,-131.8 -20.5,-535.9 21.8,-725.9 118.9,-802.3"
         style="fill:#d9935c;fill-opacity:1;fill-rule:nonzero;stroke:none"
         id="path256" /><path
         d="m 14818.3,5749.9 c -22.7,-125 -37.1,-227.6 -40.9,-301.2 -51.9,-1011.1 -851.2,-3323 -994.1,-3376.9 -221.2,-83.5 -569.6,94 -751.8,152 -75.6,24.1 -126.5,100.3 -109.7,177.6 395.8,1819.7 541.3,4440 594.2,5991.3 26.7,781.4 160.9,1321.2 160.9,1321.2 0,0 1949.4,520.1 1961,-137.8 10.3,-582.3 -645.8,-2865.7 -819.6,-3826.2"
         style="fill:#2b478b;fill-opacity:1;fill-rule:nonzero;stroke:none"
         id="path258" /><path
         d="M 14818.3,5749.9 13516,8392.7 c 26.7,781.4 160.9,1321.2 160.9,1321.2 0,0 1949.4,520.1 1961,-137.8 10.3,-582.3 -645.8,-2865.7 -819.6,-3826.2"
         style="fill:#233862;fill-opacity:1;fill-rule:nonzero;stroke:none"
         id="path260" /><path
         d="m 14384.6,9573.7 1030.5,-7469.1 c 0,0 452.6,-109.2 804.6,-21.9 0,0 301.7,3972.5 276.6,4932.9 -25.2,960.3 216.5,2569.8 -55.2,2747.3 -271.7,177.4 -2056.5,-189.2 -2056.5,-189.2"
         style="fill:#2b478b;fill-opacity:1;fill-rule:nonzero;stroke:none"
         id="path262" /><path
         d="m 16589.2,9762.9 c 3.4,-86.6 -65.1,-158.7 -151.6,-160 l -1624,-24.8 -1192.8,-18.2 c -55.9,-1 120.7,445.9 124.3,3359.8 0.9,650.2 1007.5,1349.9 1026.1,1349.9 l 0.2,-0.2 c 0,-93.7 147.5,-266.6 374.9,-281.4 269.7,-17.7 600.7,116.6 600.7,272 0,1.7 31.3,-32.2 81.8,-105.6 134.6,-196.2 405.9,-674.6 579.1,-1507.5 136.8,-657.8 84.2,-1537.2 182.6,-2671.9 7.2,-81.9 -3.4,-154.7 -1.3,-212.1"
         style="fill:#ffa412;fill-opacity:1;fill-rule:nonzero;stroke:none"
         id="path264" /><path
         d="m 16529.3,9593.8 c 0,0 -215.9,-96.7 -619.7,-180.4 -300.2,-62.3 -704.2,-117.5 -1200.5,-120.5 -789.4,-5.1 -1088.3,267 -1088.3,267 -55.9,-1 120.7,445.9 124.3,3359.8 0.9,650.2 1007.5,1349.9 1026.1,1349.9 l 0.2,-0.2 c 0,0 -25.9,-865.9 236,-1120.5 0,0 367.4,283.7 844,1091.3 134.6,-196.2 383.3,-760.4 556.5,-1593.3 35.2,-169.5 57.9,-353.6 73.8,-553 46,-574.7 35.7,-1276.5 108.8,-2118.9 7.2,-81.9 -3.4,-154.7 -1.3,-212.1 3.4,-86.6 26.6,-167.7 -59.9,-169.1"
         style="fill:#739af0;fill-opacity:1;fill-rule:nonzero;stroke:none"
         id="path266" /><path
         d="m 16529.3,9593.8 c 0,0 -215.9,-96.7 -619.7,-180.4 -127,193.8 -287.1,543.4 -309.2,1094.4 -37.6,931.8 847.5,2131.8 847.5,2131.8 l 33.8,-545.7 c 46,-574.7 35.7,-1276.5 108.8,-2118.9 7.2,-81.9 -3.4,-154.7 -1.3,-212.1 3.4,-86.6 26.6,-167.7 -59.9,-169.1"
         style="fill:#4a75cb;fill-opacity:1;fill-rule:nonzero;stroke:none"
         id="path268" /><path
         d="m 15762.7,12749 -1508.8,-871.1 1194.9,-2069.6 1508.7,871.1 -1194.8,2069.6"
         style="fill:#2b478b;fill-opacity:1;fill-rule:nonzero;stroke:none"
         id="path270" /><path
         d="m 16702.6,13956.5 c -184.8,139.7 -618.8,238.7 -832.4,280.9 -75.3,14.8 -123.2,22.6 -123.2,22.6 22.3,-102.7 72.4,-263.8 137.9,-457.2 274.3,-810.5 818.1,-2188.8 708.6,-2218.1 -89.2,-23.9 -203.2,-45 -328.7,-63.3 -477,-69.9 -1118.9,-100.8 -1186,-103.9 -5.3,4.9 -233.9,218.1 -322.9,218.1 -90.1,0 -349.7,-94.6 -376.2,-167.4 -26.4,-72.7 -37,-203.7 37.1,-232.8 74.2,-29.1 381.4,-101.9 460.9,-109.1 10.9,-1 24,-1 38.2,0.3 570.8,-167.8 1062,-250.1 1440.6,-289.1 528.2,-54.2 837.2,-24.1 837.2,-24.1 382.6,823.5 -241.2,2954.2 -491.1,3143.1"
         style="fill:#d9935c;fill-opacity:1;fill-rule:nonzero;stroke:none"
         id="path272" /><path
         d="m 17193.7,10813.4 c 0,0 -309,-30.1 -837.2,24.1 29.2,143.5 56.2,423.8 -91.7,683.9 125.5,18.3 239.5,39.4 328.7,63.3 109.5,29.3 -434.3,1407.6 -708.6,2218.1 -22,262 -33.5,437.4 -33.5,437.4 l 18.8,-2.8 c 213.6,-42.2 647.6,-141.2 832.4,-280.9 249.9,-188.9 873.7,-2319.6 491.1,-3143.1"
         style="fill:#739af0;fill-opacity:1;fill-rule:nonzero;stroke:none"
         id="path274" /><path
         d="m 15007.4,13148.9 c 0,0 734.8,323.7 745.7,349.2 11,25.5 -36.3,221.9 -87.3,280.1 0,0 352.9,-32.7 374.7,10.9 21.9,43.7 38.2,402.8 38.2,402.8 0,0 -146.9,152.1 -328.7,166.6 0,0 -159.7,-396.8 -218.8,-514.8 -156.4,-312.9 -523.8,-694.8 -523.8,-694.8"
         style="fill:#4a75cb;fill-opacity:1;fill-rule:nonzero;stroke:none"
         id="path276" /><path
         d="m 14832.8,13789.1 c 0,0 47.3,-378.3 174.6,-640.2 0,0 -383.8,267.4 -416.5,354.7 -32.8,87.3 92.7,256.4 92.7,256.4 0,0 -229.2,5.5 -234.6,81.9 -5.5,76.4 70.9,376.5 70.9,376.5 0,0 197.2,143.9 251.7,138.5 l 61.2,-567.8"
         style="fill:#4a75cb;fill-opacity:1;fill-rule:nonzero;stroke:none"
         id="path278" /><path
         d="m 16076.8,15879.5 -1631.9,-17.5 c 0,0 -24,492.1 258.8,805.9 13,14.5 26.6,28.5 41.1,42.2 61,58 134.5,108 222.9,144.8 326.2,136.1 596.7,10.5 765.8,-118.1 16.6,-12.6 32.3,-25.2 46.9,-37.8 91.9,-78.1 143.2,-147.8 143.2,-147.8 0,0 158.5,-216.1 153.2,-671.7"
         style="fill:#ffa412;fill-opacity:1;fill-rule:nonzero;stroke:none"
         id="path280" /><path
         d="m 15618.4,15874.6 c -4.5,66.2 -33.3,630.6 164.9,821.9 -14.5,12.6 -10.4,10 -27,22.6 -211.4,-220 -228.2,-775.4 -227.3,-845.5 l -521.7,-5.6 c -15.5,399.7 -236,797.7 -262.5,842.1 -14.5,-13.7 -17.2,-16.4 -30.1,-30.9 38.3,-67.3 182.3,-452.6 196.1,-812.2 l -465.9,-5 c 0,0 434.6,-112.3 762,-108.3 327.3,4.1 869.9,125.8 869.9,125.8 l -458.4,-4.9"
         style="fill:#e27f2b;fill-opacity:1;fill-rule:nonzero;stroke:none"
         id="path282" /></g></g></svg>
